<?xml version="1.0" encoding="UTF-8"?>
<svg width="23px" height="24px" viewBox="0 0 23 24" version="1.1" xmlns="http://www.w3.org/2000/svg" xmlns:xlink="http://www.w3.org/1999/xlink">
    <!-- Generator: Sketch 64 (93537) - https://sketch.com -->
    <title>形状结合</title>
    <desc>Created with Sketch.</desc>
    <defs>
        <rect id="path-1" x="0" y="0" width="24" height="24"></rect>
    </defs>
    <g id="页面-1" stroke="none" stroke-width="1" fill="none" fill-rule="evenodd">
        <g id="形状结合" transform="translate(-1.000000, 0.000000)">
            <mask id="mask-2" fill="white">
                <use xlink:href="#path-1"></use>
            </mask>
            <g id="蒙版"></g>
            <path d="M19.8150296,-2.17766725 C22.0586717,12.6344504 18.1946526,20.1851929 8.2229723,20.4745604 C8.26147609,21.5642096 8.3796821,23.1561353 8.57818422,25.2509042 L5.13562693,25.2509042 C5.28017965,23.0801171 5.65517357,21.4688672 6.26060869,20.4171545 L6.27187919,20.4431546 C0.498488709,8.36870741 8.68166727,2.33021868 13.4192278,0.822732071 L13.5617176,0.778436008 C16.7039241,-0.175169894 18.7883614,-1.16053765 19.8150296,-2.17766725 Z M15.791505,4.10621262 C10.5789193,7.51897117 7.90292634,12.3482762 7.76352596,18.5941276 C9.08257884,13.7648226 11.7585718,8.93551762 15.791505,4.10621262 Z" fill="#06C8C7" mask="url(#mask-2)" transform="translate(12.359447, 11.536618) rotate(-345.000000) translate(-12.359447, -11.536618) "></path>
        </g>
    </g>
</svg>