<?xml version="1.0" encoding="UTF-8"?>
<svg width="18px" height="18px" viewBox="0 0 18 18" version="1.1" xmlns="http://www.w3.org/2000/svg" xmlns:xlink="http://www.w3.org/1999/xlink">
    <!-- Generator: Sketch 64 (93537) - https://sketch.com -->
    <title>开发者人数</title>
    <desc>Created with Sketch.</desc>
    <defs>
        <rect id="path-1" x="0" y="0" width="18" height="18"></rect>
    </defs>
    <g id="页面-1" stroke="none" stroke-width="1" fill="none" fill-rule="evenodd" opacity="0.800000012">
        <g id="画板" transform="translate(-1593.000000, -301.000000)">
            <g id="矩形-+-路径-60备份-+-路径-60备份-2-+-路径-17-蒙版备份" transform="translate(1593.000000, 301.000000)">
                <mask id="mask-2" fill="white">
                    <use xlink:href="#path-1"></use>
                </mask>
                <g id="蒙版"></g>
                <path d="M17,0 C17.5522847,-1.01453063e-16 18,0.44771525 18,1 L18,13 C18,13.5522847 17.5522847,14 17,14 L1,14 C0.44771525,14 6.76353751e-17,13.5522847 0,13 L0,1 C-6.76353751e-17,0.44771525 0.44771525,1.01453063e-16 1,0 L17,0 Z M11.0110913,3.46966991 C10.7448247,3.73593648 10.7206187,4.15260016 10.9384731,4.44621165 L11.0110913,4.53033009 L13.4804214,7 L11.0110913,9.46966991 C10.7448247,9.73593648 10.7206187,10.1526002 10.9384731,10.4462117 L11.0110913,10.5303301 C11.2773578,10.7965966 11.6940215,10.8208027 11.987633,10.6029482 L12.0717514,10.5303301 L15.0010408,7.60104076 C15.3053243,7.29675725 15.3306812,6.819171 15.0771116,6.4860037 L15.0010408,6.39895924 L12.0717514,3.46966991 C11.7788582,3.1767767 11.3039845,3.1767767 11.0110913,3.46966991 Z M7.03033009,3.46966991 C6.73743687,3.1767767 6.26256313,3.1767767 5.96966991,3.46966991 L5.96966991,3.46966991 L3.04038059,6.39895924 L2.96430971,6.4860037 C2.71074012,6.819171 2.73609708,7.29675725 3.04038059,7.60104076 L3.04038059,7.60104076 L5.96966991,10.5303301 L6.05378835,10.6029482 C6.34739984,10.8208027 6.76406352,10.7965966 7.03033009,10.5303301 L7.03033009,10.5303301 L7.10294824,10.4462117 C7.3208027,10.1526002 7.29659665,9.73593648 7.03033009,9.46966991 L7.03033009,9.46966991 L4.561,7 L7.03033009,4.53033009 L7.10294824,4.44621165 C7.3208027,4.15260016 7.29659665,3.73593648 7.03033009,3.46966991 Z" id="形状结合" fill="#FFFFFF" mask="url(#mask-2)"></path>
                <path d="M15,15.5 C15.5522847,15.5 16,15.9477153 16,16.5 C16,17.0128358 15.6139598,17.4355072 15.1166211,17.4932723 L15,17.5 L3,17.5 C2.44771525,17.5 2,17.0522847 2,16.5 C2,15.9871642 2.38604019,15.5644928 2.88337887,15.5067277 L3,15.5 L15,15.5 Z" id="路径-17" fill="#FFFFFF" fill-rule="nonzero" mask="url(#mask-2)"></path>
            </g>
        </g>
    </g>
</svg>