<?xml version="1.0" encoding="UTF-8"?>
<svg width="18px" height="18px" viewBox="0 0 18 18" version="1.1" xmlns="http://www.w3.org/2000/svg" xmlns:xlink="http://www.w3.org/1999/xlink">
    <!-- Generator: Sketch 64 (93537) - https://sketch.com -->
    <title>应用</title>
    <desc>Created with Sketch.</desc>
    <defs>
        <rect id="path-1" x="0" y="0" width="18" height="18"></rect>
    </defs>
    <g id="页面-1" stroke="none" stroke-width="1" fill="none" fill-rule="evenodd">
        <g id="形状结合备份-2">
            <mask id="mask-2" fill="white">
                <use xlink:href="#path-1"></use>
            </mask>
            <g id="蒙版"></g>
            <path d="M13.7040046,9.70304636 L16.815861,12.8149028 C17.0613797,13.0604214 17.0613797,13.4584859 16.815861,13.7040046 L13.7040046,16.815861 C13.4584859,17.0613797 13.0604214,17.0613797 12.8149028,16.815861 L9.70304636,13.7040046 C9.45752767,13.4584859 9.45752767,13.0604214 9.70304636,12.8149028 L12.8149028,9.70304636 C13.0604214,9.45752767 13.4584859,9.45752767 13.7040046,9.70304636 Z M7.28689932,9.80165905 C7.63411518,9.80165905 7.91558925,10.0831331 7.91558925,10.430349 L7.91558925,16.0885584 C7.91558925,16.4357742 7.63411518,16.7172483 7.28689932,16.7172483 L1.62868993,16.7172483 C1.28147407,16.7172483 1,16.4357742 1,16.0885584 L1,10.430349 C1,10.0831331 1.28147407,9.80165905 1.62868993,9.80165905 L7.28689932,9.80165905 Z M7.28689932,1 C7.63411518,1 7.91558925,1.28147407 7.91558925,1.62868993 L7.91558925,7.28689932 C7.91558925,7.63411518 7.63411518,7.91558925 7.28689932,7.91558925 L1.62868993,7.91558925 C1.28147407,7.91558925 1,7.63411518 1,7.28689932 L1,1.62868993 C1,1.28147407 1.28147407,1 1.62868993,1 L7.28689932,1 Z M16.0885584,1 C16.4357742,1 16.7172483,1.28147407 16.7172483,1.62868993 L16.7172483,7.28689932 C16.7172483,7.63411518 16.4357742,7.91558925 16.0885584,7.91558925 L10.430349,7.91558925 C10.0831331,7.91558925 9.80165905,7.63411518 9.80165905,7.28689932 L9.80165905,1.62868993 C9.80165905,1.28147407 10.0831331,1 10.430349,1 L16.0885584,1 Z" id="形状结合" fill="#0AD5D4" mask="url(#mask-2)"></path>
        </g>
    </g>
</svg>