<?xml version="1.0" encoding="UTF-8"?>
<svg width="18px" height="18px" viewBox="0 0 18 18" version="1.1" xmlns="http://www.w3.org/2000/svg" xmlns:xlink="http://www.w3.org/1999/xlink">
    <!-- Generator: Sketch 64 (93537) - https://sketch.com -->
    <title>伙伴数</title>
    <desc>Created with Sketch.</desc>
    <g id="页面-1" stroke="none" stroke-width="1" fill="none" fill-rule="evenodd" opacity="0.800000012">
        <g id="画板" transform="translate(-1593.000000, -199.000000)" fill="#FFFFFF">
            <g id="编组-13备份-4" transform="translate(1593.000000, 199.000000)">
                <path d="M12.24,1.44 C14.2282251,1.44 15.84,3.0517749 15.84,5.04 C15.84,6.39170264 15.0950354,7.56940948 13.9932817,8.18494518 C16.3172404,8.90550093 18,11.0218275 18,13.5202857 C18,14.3813466 17.1071599,15.0026928 15.8186032,15.3843245 C15.8333682,15.2748509 15.84,15.1623674 15.84,15.0476364 L15.8372189,14.8289334 C15.7631922,11.9205575 14.2168092,9.32526209 11.8523067,7.82597465 L11.79648,7.79112 L11.877924,7.68181038 C12.5660823,6.72459197 12.96,5.5573556 12.96,4.32 C12.96,3.27131641 12.6797522,2.2880882 12.1900638,1.44112266 L12.24,1.44 L12.24,1.44 Z" id="形状结合"></path>
                <path d="M7.2,0 C9.58587012,0 11.52,1.93412988 11.52,4.32 C11.52,6.00926858 10.5504071,7.4720766 9.13738147,8.18226373 C12.1731268,9.01888701 14.4,11.7758183 14.4,15.0476364 C14.4,18.9841212 0,18.9841212 0,15.0476364 C0,11.7758183 2.22687322,9.01888701 5.26204309,8.18116156 C3.84959295,7.4720766 2.88,6.00926858 2.88,4.32 C2.88,1.93412988 4.81412988,0 7.2,0 Z" id="形状结合"></path>
            </g>
        </g>
    </g>
</svg>